<svg width="821" height="115" viewBox="0 0 821 115" fill="none" xmlns="http://www.w3.org/2000/svg">
<path d="M130.047 92V79.9062H147.062C151.406 79.9062 155.031 79.125 157.938 77.5625C160.875 76 163.078 73.6094 164.547 70.3906C166.016 67.1719 166.75 63.0469 166.75 58.0156C166.75 53.0156 166 48.9062 164.5 45.6875C163.031 42.4375 160.844 40.0469 157.938 38.5156C155.062 36.9844 151.469 36.2188 147.156 36.2188H129.719V24.125H147.859C154.641 24.125 160.516 25.4688 165.484 28.1562C170.453 30.8437 174.25 34.75 176.875 39.875C179.531 44.9688 180.859 51.0156 180.859 58.0156C180.859 65.0469 179.531 71.1094 176.875 76.2031C174.219 81.2969 170.391 85.2031 165.391 87.9219C160.422 90.6406 154.516 92 147.672 92H130.047ZM137.828 92H123.766V24.125H137.828V92ZM191.078 24.125H236.641V35.75H205.141V52.25H234.25V63.8281H205.141V80.375H236.734V92H191.078V24.125ZM304.188 92H292L262.188 48.875H261.672V92H247.609V24.125H259.984L289.562 67.2031H290.172V24.125H304.188V92ZM313.047 24.125H368.641V35.75H347.828V92H333.906V35.75H313.047V24.125ZM391.516 92H377.453V24.125H391.516V92ZM459.156 24.125V68.2344C459.156 73.1406 457.984 77.4688 455.641 81.2188C453.328 84.9375 450.031 87.8281 445.75 89.8906C441.5 91.9219 436.609 92.9375 431.078 92.9375C425.484 92.9375 420.578 91.9219 416.359 89.8906C412.141 87.8281 408.859 84.9375 406.516 81.2188C404.203 77.4688 403.047 73.1406 403.047 68.2344V24.125H417.109V67.0625C417.109 69.6562 417.688 71.9688 418.844 74C420 76.0312 421.625 77.6406 423.719 78.8281C425.844 79.9844 428.297 80.5625 431.078 80.5625C433.828 80.5625 436.266 79.9844 438.391 78.8281C440.547 77.6406 442.188 76.0312 443.312 74C444.438 71.9688 445.016 69.6562 445.047 67.0625V24.125H459.156ZM487.984 24.125L506.875 70.1094H507.672L526.516 24.125H543.906V92H530.219V47.5156H529.656L511.938 91.6719H502.516L484.844 47.4219H484.281V92H470.641V24.125H487.984Z" fill="white"/>
<path d="M576.75 24.125H627.938V31.625H606.656V92H598.125V31.625H576.75V24.125ZM639.188 24.125H680.344V31.625H647.625V54.3125H678.188V61.7188H647.625V84.5H680.812V92H639.188V24.125ZM739.969 45.5C739.344 42.4688 738.109 39.875 736.266 37.7188C734.422 35.5312 732.172 33.875 729.516 32.75C726.891 31.625 724.062 31.0625 721.031 31.0625C716.875 31.0625 713.141 32.1094 709.828 34.2031C706.547 36.2969 703.953 39.375 702.047 43.4375C700.141 47.5 699.188 52.375 699.188 58.0625C699.188 63.7188 700.141 68.5781 702.047 72.6406C703.953 76.6719 706.547 79.75 709.828 81.875C713.141 83.9688 716.875 85.0312 721.031 85.0625C724.062 85.0312 726.891 84.4688 729.516 83.375C732.172 82.25 734.406 80.6094 736.219 78.4531C738.062 76.2969 739.312 73.7188 739.969 70.7188H748.406C747.594 75.25 745.906 79.2031 743.344 82.5781C740.781 85.9219 737.562 88.4844 733.688 90.2656C729.844 92.0469 725.625 92.9375 721.031 92.9375C715.219 92.9375 710.047 91.5156 705.516 88.6719C700.984 85.8281 697.438 81.7812 694.875 76.5312C692.312 71.25 691.031 65.0938 691.031 58.0625C691.031 51.0312 692.312 44.8906 694.875 39.6406C697.438 34.3594 700.984 30.2969 705.516 27.4531C710.047 24.6094 715.219 23.1875 721.031 23.1875C725.625 23.1875 729.844 24.0625 733.688 25.8125C737.562 27.5625 740.781 30.125 743.344 33.5C745.906 36.875 747.594 40.875 748.406 45.5H739.969ZM760.219 24.125H768.656V54.3125H804.562V24.125H813.094V92H804.562V61.7188H768.656V92H760.219V24.125Z" fill="white"/>
<g filter="url(#filter0_d_19_4)">
<rect x="4" y="29" width="73" height="73" fill="#CBFF37"/>
</g>
<g filter="url(#filter1_d_19_4)">
<rect x="22" y="10" width="73" height="73" fill="#CBFF37"/>
</g>
<defs>
<filter id="filter0_d_19_4" x="0" y="29" width="81" height="81" filterUnits="userSpaceOnUse" color-interpolation-filters="sRGB">
<feFlood flood-opacity="0" result="BackgroundImageFix"/>
<feColorMatrix in="SourceAlpha" type="matrix" values="0 0 0 0 0 0 0 0 0 0 0 0 0 0 0 0 0 0 127 0" result="hardAlpha"/>
<feOffset dy="4"/>
<feGaussianBlur stdDeviation="2"/>
<feComposite in2="hardAlpha" operator="out"/>
<feColorMatrix type="matrix" values="0 0 0 0 0 0 0 0 0 0 0 0 0 0 0 0 0 0 0.25 0"/>
<feBlend mode="normal" in2="BackgroundImageFix" result="effect1_dropShadow_19_4"/>
<feBlend mode="normal" in="SourceGraphic" in2="effect1_dropShadow_19_4" result="shape"/>
</filter>
<filter id="filter1_d_19_4" x="18" y="10" width="81" height="81" filterUnits="userSpaceOnUse" color-interpolation-filters="sRGB">
<feFlood flood-opacity="0" result="BackgroundImageFix"/>
<feColorMatrix in="SourceAlpha" type="matrix" values="0 0 0 0 0 0 0 0 0 0 0 0 0 0 0 0 0 0 127 0" result="hardAlpha"/>
<feOffset dy="4"/>
<feGaussianBlur stdDeviation="2"/>
<feComposite in2="hardAlpha" operator="out"/>
<feColorMatrix type="matrix" values="0 0 0 0 0 0 0 0 0 0 0 0 0 0 0 0 0 0 0.25 0"/>
<feBlend mode="normal" in2="BackgroundImageFix" result="effect1_dropShadow_19_4"/>
<feBlend mode="normal" in="SourceGraphic" in2="effect1_dropShadow_19_4" result="shape"/>
</filter>
</defs>
</svg>
